<?xml version="1.0" standalone="no"?><svg xmlns="http://www.w3.org/2000/svg" viewBox="0 0 1440 320"><path fill="#ffffff" fill-opacity="1" d="M0,288L8.3,261.3C16.6,235,33,181,50,186.7C66.2,192,83,256,99,282.7C115.9,309,132,299,149,277.3C165.5,256,182,224,199,218.7C215.2,213,232,235,248,234.7C264.8,235,281,213,298,213.3C314.5,213,331,235,348,245.3C364.1,256,381,256,397,234.7C413.8,213,430,171,447,144C463.4,117,480,107,497,101.3C513.1,96,530,96,546,117.3C562.8,139,579,181,596,186.7C612.4,192,629,160,646,128C662.1,96,679,64,695,53.3C711.7,43,728,53,745,101.3C761.4,149,778,235,794,256C811,277,828,235,844,186.7C860.7,139,877,85,894,90.7C910.3,96,927,160,943,170.7C960,181,977,139,993,138.7C1009.7,139,1026,181,1043,208C1059.3,235,1076,245,1092,218.7C1109,192,1126,128,1142,128C1158.6,128,1175,192,1192,192C1208.3,192,1225,128,1241,133.3C1257.9,139,1274,213,1291,224C1307.6,235,1324,181,1341,160C1357.2,139,1374,149,1390,176C1406.9,203,1423,245,1432,266.7L1440,288L1440,0L1431.7,0C1423.4,0,1407,0,1390,0C1373.8,0,1357,0,1341,0C1324.1,0,1308,0,1291,0C1274.5,0,1258,0,1241,0C1224.8,0,1208,0,1192,0C1175.2,0,1159,0,1142,0C1125.5,0,1109,0,1092,0C1075.9,0,1059,0,1043,0C1026.2,0,1010,0,993,0C976.6,0,960,0,943,0C926.9,0,910,0,894,0C877.2,0,861,0,844,0C827.6,0,811,0,794,0C777.9,0,761,0,745,0C728.3,0,712,0,695,0C678.6,0,662,0,646,0C629,0,612,0,596,0C579.3,0,563,0,546,0C529.7,0,513,0,497,0C480,0,463,0,447,0C430.3,0,414,0,397,0C380.7,0,364,0,348,0C331,0,314,0,298,0C281.4,0,265,0,248,0C231.7,0,215,0,199,0C182.1,0,166,0,149,0C132.4,0,116,0,99,0C82.8,0,66,0,50,0C33.1,0,17,0,8,0L0,0Z"></path></svg>